solid OpenSCAD_Model
  facet normal 0 1 0
    outer loop
      vertex -35.4 34.405 0
      vertex -35.37868018124654 34.405 10
      vertex -35.37868018124654 34.405 0
    endloop
  endfacet
  facet normal -1 0 0
    outer loop
      vertex -34.405 35.4 0
      vertex -34.405 35.398767610684835 0
      vertex -34.405 35.4 10
    endloop
  endfacet
  facet normal 0 1 0
    outer loop
      vertex -35.4 34.405 0
      vertex -35.4 34.405 10
      vertex -35.37868018124654 34.405 10
    endloop
  endfacet
  facet normal -1 0 0
    outer loop
      vertex -34.405 35.398767610684835 0
      vertex -34.405 35.398767610684835 10
      vertex -34.405 35.4 10
    endloop
  endfacet
  facet normal 0 -1 0
    outer loop
      vertex -35.4 -34.405 0
      vertex -35.398767610684835 -34.405 0
      vertex -35.4 -34.405 10
    endloop
  endfacet
  facet normal -1 0 0
    outer loop
      vertex -34.405 -35.4 0
      vertex -34.405 -35.37868018124654 10
      vertex -34.405 -35.37868018124654 0
    endloop
  endfacet
  facet normal 0 -1 0
    outer loop
      vertex -35.398767610684835 -34.405 0
      vertex -35.398767610684835 -34.405 10
      vertex -35.4 -34.405 10
    endloop
  endfacet
  facet normal -1 0 0
    outer loop
      vertex -34.405 -35.4 0
      vertex -34.405 -35.4 10
      vertex -34.405 -35.37868018124654 10
    endloop
  endfacet
  facet normal 1 0 0
    outer loop
      vertex 34.405 -35.4 0
      vertex 34.405 -35.398767610684835 0
      vertex 34.405 -35.4 10
    endloop
  endfacet
  facet normal 0 -1 0
    outer loop
      vertex 35.4 -34.405 0
      vertex 35.37868018124654 -34.405 10
      vertex 35.37868018124654 -34.405 0
    endloop
  endfacet
  facet normal 1 0 0
    outer loop
      vertex 34.405 -35.398767610684835 0
      vertex 34.405 -35.398767610684835 10
      vertex 34.405 -35.4 10
    endloop
  endfacet
  facet normal 0 -1 0
    outer loop
      vertex 35.4 -34.405 0
      vertex 35.4 -34.405 10
      vertex 35.37868018124654 -34.405 10
    endloop
  endfacet
  facet normal 1 0 0
    outer loop
      vertex 34.405 35.4 0
      vertex 34.405 35.37868018124654 10
      vertex 34.405 35.37868018124654 0
    endloop
  endfacet
  facet normal 0 1 0
    outer loop
      vertex 35.4 34.405 0
      vertex 35.398767610684835 34.405 0
      vertex 35.4 34.405 10
    endloop
  endfacet
  facet normal 1 0 0
    outer loop
      vertex 34.405 35.4 0
      vertex 34.405 35.4 10
      vertex 34.405 35.37868018124654 10
    endloop
  endfacet
  facet normal 0 1 0
    outer loop
      vertex 35.398767610684835 34.405 0
      vertex 35.398767610684835 34.405 10
      vertex 35.4 34.405 10
    endloop
  endfacet
  facet normal -0.9927088740980526 -0.12053668025533361 0
    outer loop
      vertex -35.37868018124654 34.405 0
      vertex -35.37868018124654 34.405 10
      vertex -35.392708874098055 34.52053668025532 0
    endloop
  endfacet
  facet normal -0.9350162426854117 0.35460488704254384 0
    outer loop
      vertex -35.392708874098055 34.52053668025532 0
      vertex -35.392708874098055 34.52053668025532 10
      vertex -35.22298386589365 34.96806474673115 0
    endloop
  endfacet
  facet normal -0.6631226582408039 0.7485107481710934 0
    outer loop
      vertex -35.22298386589365 34.96806474673115 0
      vertex -35.22298386589365 34.96806474673115 10
      vertex -34.86472317204377 35.28545602565321 0
    endloop
  endfacet
  facet normal -0.23931566428754736 0.9709418174260547 0
    outer loop
      vertex -34.86472317204377 35.28545602565321 0
      vertex -34.86472317204377 35.28545602565321 10
      vertex -34.405 35.398767610684835 0
    endloop
  endfacet
  facet normal -0.9927088740980526 -0.12053668025533361 0
    outer loop
      vertex -35.392708874098055 34.52053668025532 0
      vertex -35.37868018124654 34.405 10
      vertex -35.392708874098055 34.52053668025532 10
    endloop
  endfacet
  facet normal -0.9350162426854117 0.35460488704254384 0
    outer loop
      vertex -35.22298386589365 34.96806474673115 0
      vertex -35.392708874098055 34.52053668025532 10
      vertex -35.22298386589365 34.96806474673115 10
    endloop
  endfacet
  facet normal -0.6631226582408039 0.7485107481710934 0
    outer loop
      vertex -34.86472317204377 35.28545602565321 0
      vertex -35.22298386589365 34.96806474673115 10
      vertex -34.86472317204377 35.28545602565321 10
    endloop
  endfacet
  facet normal -0.23931566428754736 0.9709418174260547 0
    outer loop
      vertex -34.405 35.398767610684835 0
      vertex -34.86472317204377 35.28545602565321 10
      vertex -34.405 35.398767610684835 10
    endloop
  endfacet
  facet normal -0.7485107481710934 -0.6631226582408039 0
    outer loop
      vertex -35.28545602565321 -34.86472317204377 0
      vertex -34.96806474673115 -35.22298386589365 0
      vertex -34.96806474673115 -35.22298386589365 10
    endloop
  endfacet
  facet normal -0.9709418174260547 -0.23931566428754736 0
    outer loop
      vertex -35.28545602565321 -34.86472317204377 0
      vertex -35.28545602565321 -34.86472317204377 10
      vertex -35.398767610684835 -34.405 0
    endloop
  endfacet
  facet normal -0.35460488704254384 -0.9350162426854117 0
    outer loop
      vertex -34.96806474673115 -35.22298386589365 0
      vertex -34.52053668025532 -35.392708874098055 0
      vertex -34.52053668025532 -35.392708874098055 10
    endloop
  endfacet
  facet normal 0.12053668025533361 -0.9927088740980526 0
    outer loop
      vertex -34.52053668025532 -35.392708874098055 0
      vertex -34.405 -35.37868018124654 0
      vertex -34.405 -35.37868018124654 10
    endloop
  endfacet
  facet normal -0.7485107481710934 -0.6631226582408039 0
    outer loop
      vertex -35.28545602565321 -34.86472317204377 0
      vertex -34.96806474673115 -35.22298386589365 10
      vertex -35.28545602565321 -34.86472317204377 10
    endloop
  endfacet
  facet normal -0.9709418174260547 -0.23931566428754736 0
    outer loop
      vertex -35.398767610684835 -34.405 0
      vertex -35.28545602565321 -34.86472317204377 10
      vertex -35.398767610684835 -34.405 10
    endloop
  endfacet
  facet normal -0.35460488704254384 -0.9350162426854117 0
    outer loop
      vertex -34.96806474673115 -35.22298386589365 0
      vertex -34.52053668025532 -35.392708874098055 10
      vertex -34.96806474673115 -35.22298386589365 10
    endloop
  endfacet
  facet normal 0.12053668025533361 -0.9927088740980526 0
    outer loop
      vertex -34.52053668025532 -35.392708874098055 0
      vertex -34.405 -35.37868018124654 10
      vertex -34.52053668025532 -35.392708874098055 10
    endloop
  endfacet
  facet normal 0.23931566428754736 -0.9709418174260547 0
    outer loop
      vertex 34.405 -35.398767610684835 0
      vertex 34.86472317204377 -35.28545602565321 0
      vertex 34.86472317204377 -35.28545602565321 10
    endloop
  endfacet
  facet normal 0.6631226582408039 -0.7485107481710934 0
    outer loop
      vertex 34.86472317204377 -35.28545602565321 0
      vertex 35.22298386589365 -34.96806474673115 0
      vertex 35.22298386589365 -34.96806474673115 10
    endloop
  endfacet
  facet normal 0.9350162426854117 -0.35460488704254384 0
    outer loop
      vertex 35.22298386589365 -34.96806474673115 0
      vertex 35.392708874098055 -34.52053668025532 0
      vertex 35.392708874098055 -34.52053668025532 10
    endloop
  endfacet
  facet normal 0.9927088740980526 0.12053668025533361 0
    outer loop
      vertex 35.392708874098055 -34.52053668025532 0
      vertex 35.37868018124654 -34.405 0
      vertex 35.37868018124654 -34.405 10
    endloop
  endfacet
  facet normal 0.23931566428754736 -0.9709418174260547 0
    outer loop
      vertex 34.405 -35.398767610684835 0
      vertex 34.86472317204377 -35.28545602565321 10
      vertex 34.405 -35.398767610684835 10
    endloop
  endfacet
  facet normal 0.6631226582408039 -0.7485107481710934 0
    outer loop
      vertex 34.86472317204377 -35.28545602565321 0
      vertex 35.22298386589365 -34.96806474673115 10
      vertex 34.86472317204377 -35.28545602565321 10
    endloop
  endfacet
  facet normal 0.9350162426854117 -0.35460488704254384 0
    outer loop
      vertex 35.22298386589365 -34.96806474673115 0
      vertex 35.392708874098055 -34.52053668025532 10
      vertex 35.22298386589365 -34.96806474673115 10
    endloop
  endfacet
  facet normal 0.9927088740980526 0.12053668025533361 0
    outer loop
      vertex 35.392708874098055 -34.52053668025532 0
      vertex 35.37868018124654 -34.405 10
      vertex 35.392708874098055 -34.52053668025532 10
    endloop
  endfacet
  facet normal -0.12053668025533361 0.9927088740980526 0
    outer loop
      vertex 34.405 35.37868018124654 0
      vertex 34.405 35.37868018124654 10
      vertex 34.52053668025532 35.392708874098055 0
    endloop
  endfacet
  facet normal 0.35460488704254384 0.9350162426854117 0
    outer loop
      vertex 34.52053668025532 35.392708874098055 0
      vertex 34.52053668025532 35.392708874098055 10
      vertex 34.96806474673115 35.22298386589365 0
    endloop
  endfacet
  facet normal 0.9709418174260547 0.23931566428754736 0
    outer loop
      vertex 35.398767610684835 34.405 0
      vertex 35.28545602565321 34.86472317204377 0
      vertex 35.28545602565321 34.86472317204377 10
    endloop
  endfacet
  facet normal 0.7485107481710934 0.6631226582408039 0
    outer loop
      vertex 34.96806474673115 35.22298386589365 0
      vertex 34.96806474673115 35.22298386589365 10
      vertex 35.28545602565321 34.86472317204377 0
    endloop
  endfacet
  facet normal -0.12053668025533361 0.9927088740980526 0
    outer loop
      vertex 34.52053668025532 35.392708874098055 0
      vertex 34.405 35.37868018124654 10
      vertex 34.52053668025532 35.392708874098055 10
    endloop
  endfacet
  facet normal 0.35460488704254384 0.9350162426854117 0
    outer loop
      vertex 34.96806474673115 35.22298386589365 0
      vertex 34.52053668025532 35.392708874098055 10
      vertex 34.96806474673115 35.22298386589365 10
    endloop
  endfacet
  facet normal 0.9709418174260547 0.23931566428754736 0
    outer loop
      vertex 35.398767610684835 34.405 0
      vertex 35.28545602565321 34.86472317204377 10
      vertex 35.398767610684835 34.405 10
    endloop
  endfacet
  facet normal 0.7485107481710934 0.6631226582408039 0
    outer loop
      vertex 35.28545602565321 34.86472317204377 0
      vertex 34.96806474673115 35.22298386589365 10
      vertex 35.28545602565321 34.86472317204377 10
    endloop
  endfacet
  facet normal 0 0 -1
    outer loop
      vertex -34.96806474673115 -35.22298386589365 0
      vertex -34.405 -35.37868018124654 0
      vertex -34.52053668025532 -35.392708874098055 0
    endloop
  endfacet
  facet normal 0 0 -1
    outer loop
      vertex -35.398767610684835 -34.405 0
      vertex -18.4125 -14.0625 0
      vertex -11.850000000000001 -14.0625 0
    endloop
  endfacet
  facet normal 0 0 -1
    outer loop
      vertex -35.4 -34.405 0
      vertex -35.37868018124654 34.405 0
      vertex -35.398767610684835 -34.405 0
    endloop
  endfacet
  facet normal 0 0 -1
    outer loop
      vertex -35.398767610684835 -34.405 0
      vertex -35.37868018124654 34.405 0
      vertex -18.4125 -14.0625 0
    endloop
  endfacet
  facet normal -1 0 0
    outer loop
      vertex -35.4 -34.405 0
      vertex -35.4 -34.405 10
      vertex -35.4 34.405 0
    endloop
  endfacet
  facet normal 0 0 -1
    outer loop
      vertex -35.28545602565321 -34.86472317204377 0
      vertex -35.398767610684835 -34.405 0
      vertex 18.4225 -14.0625 0
    endloop
  endfacet
  facet normal 0 0 -1
    outer loop
      vertex -34.96806474673115 -35.22298386589365 0
      vertex 34.405 -35.398767610684835 0
      vertex -34.405 -35.37868018124654 0
    endloop
  endfacet
  facet normal 0 0 -1
    outer loop
      vertex -35.28545602565321 -34.86472317204377 0
      vertex 35.37868018124654 -34.405 0
      vertex -34.96806474673115 -35.22298386589365 0
    endloop
  endfacet
  facet normal 0 0 -1
    outer loop
      vertex -34.405 -35.4 0
      vertex -34.405 -35.37868018124654 0
      vertex 34.405 -35.4 0
    endloop
  endfacet
  facet normal 0 0 -1
    outer loop
      vertex -35.398767610684835 -34.405 0
      vertex -11.850000000000001 -14.0625 0
      vertex 18.4125 -14.0625 0
    endloop
  endfacet
  facet normal 0 0 1
    outer loop
      vertex -35.28545602565321 -34.86472317204377 10
      vertex -34.96806474673115 -35.22298386589365 10
      vertex -35.398767610684835 -34.405 10
    endloop
  endfacet
  facet normal 0 0 1
    outer loop
      vertex -34.96806474673115 -35.22298386589365 10
      vertex -35.37868018124654 34.405 10
      vertex -35.398767610684835 -34.405 10
    endloop
  endfacet
  facet normal 0 0 1
    outer loop
      vertex -34.96806474673115 -35.22298386589365 10
      vertex -34.52053668025532 -35.392708874098055 10
      vertex -35.37868018124654 34.405 10
    endloop
  endfacet
  facet normal 0 0 1
    outer loop
      vertex -35.4 -34.405 10
      vertex -35.398767610684835 -34.405 10
      vertex -35.4 34.405 10
    endloop
  endfacet
  facet normal 0 0 1
    outer loop
      vertex -34.52053668025532 -35.392708874098055 10
      vertex -34.405 -35.37868018124654 10
      vertex -35.37868018124654 34.405 10
    endloop
  endfacet
  facet normal 0 0 1
    outer loop
      vertex -34.405 -35.37868018124654 10
      vertex -18.4125 -14.0625 10
      vertex -18.4125 14.0625 10
    endloop
  endfacet
  facet normal 0 0 1
    outer loop
      vertex -34.405 -35.37868018124654 10
      vertex -18.4125 14.0625 10
      vertex -18.4125 14.072500000000002 10
    endloop
  endfacet
  facet normal 0 -1 0
    outer loop
      vertex -34.405 -35.4 0
      vertex 34.405 -35.4 10
      vertex -34.405 -35.4 10
    endloop
  endfacet
  facet normal 0 0 1
    outer loop
      vertex -34.405 -35.4 10
      vertex 34.405 -35.398767610684835 10
      vertex -34.405 -35.37868018124654 10
    endloop
  endfacet
  facet normal 0 0 1
    outer loop
      vertex -34.405 -35.37868018124654 10
      vertex 34.405 -35.398767610684835 10
      vertex -18.4125 -14.0625 10
    endloop
  endfacet
  facet normal 0 0 -1
    outer loop
      vertex -35.4 -34.405 0
      vertex -35.4 34.405 0
      vertex -35.37868018124654 34.405 0
    endloop
  endfacet
  facet normal 0 0 -1
    outer loop
      vertex -35.37868018124654 34.405 0
      vertex -18.4125 14.0625 0
      vertex -18.4125 -14.0625 0
    endloop
  endfacet
  facet normal 0 0 -1
    outer loop
      vertex -18.4125 14.072500000000002 0
      vertex -18.4125 14.0625 0
      vertex -35.37868018124654 34.405 0
    endloop
  endfacet
  facet normal 0 0 -1
    outer loop
      vertex -35.37868018124654 34.405 0
      vertex -35.392708874098055 34.52053668025532 0
      vertex 34.96806474673115 35.22298386589365 0
    endloop
  endfacet
  facet normal 0 0 -1
    outer loop
      vertex -35.392708874098055 34.52053668025532 0
      vertex -35.22298386589365 34.96806474673115 0
      vertex 34.96806474673115 35.22298386589365 0
    endloop
  endfacet
  facet normal 0 0 -1
    outer loop
      vertex -35.22298386589365 34.96806474673115 0
      vertex -34.86472317204377 35.28545602565321 0
      vertex 34.96806474673115 35.22298386589365 0
    endloop
  endfacet
  facet normal 0 0 -1
    outer loop
      vertex -34.86472317204377 35.28545602565321 0
      vertex -34.405 35.398767610684835 0
      vertex 34.96806474673115 35.22298386589365 0
    endloop
  endfacet
  facet normal 0 0 -1
    outer loop
      vertex -34.405 35.4 0
      vertex 34.405 35.37868018124654 0
      vertex -34.405 35.398767610684835 0
    endloop
  endfacet
  facet normal 0 0 -1
    outer loop
      vertex -18.4125 14.072500000000002 0
      vertex -35.37868018124654 34.405 0
      vertex 35.28545602565321 34.86472317204377 0
    endloop
  endfacet
  facet normal 0 1 0
    outer loop
      vertex -34.405 35.4 0
      vertex -34.405 35.4 10
      vertex 34.405 35.4 0
    endloop
  endfacet
  facet normal -1 0 0
    outer loop
      vertex -35.4 -34.405 10
      vertex -35.4 34.405 10
      vertex -35.4 34.405 0
    endloop
  endfacet
  facet normal 0 0 1
    outer loop
      vertex -34.405 -35.37868018124654 10
      vertex -18.4125 14.072500000000002 10
      vertex -35.37868018124654 34.405 10
    endloop
  endfacet
  facet normal 0 0 1
    outer loop
      vertex -35.398767610684835 -34.405 10
      vertex -35.37868018124654 34.405 10
      vertex -35.4 34.405 10
    endloop
  endfacet
  facet normal 0 0 1
    outer loop
      vertex -18.4125 14.072500000000002 10
      vertex 18.4225 14.072500000000002 10
      vertex -35.37868018124654 34.405 10
    endloop
  endfacet
  facet normal 0 0 1
    outer loop
      vertex -35.37868018124654 34.405 10
      vertex 18.4225 14.072500000000002 10
      vertex -35.392708874098055 34.52053668025532 10
    endloop
  endfacet
  facet normal 0 0 1
    outer loop
      vertex -35.392708874098055 34.52053668025532 10
      vertex 18.4225 14.072500000000002 10
      vertex -35.22298386589365 34.96806474673115 10
    endloop
  endfacet
  facet normal 0 0 1
    outer loop
      vertex -35.22298386589365 34.96806474673115 10
      vertex 18.4225 14.072500000000002 10
      vertex -34.86472317204377 35.28545602565321 10
    endloop
  endfacet
  facet normal 0 0 1
    outer loop
      vertex -34.86472317204377 35.28545602565321 10
      vertex 18.4225 14.072500000000002 10
      vertex -34.405 35.398767610684835 10
    endloop
  endfacet
  facet normal 0 0 1
    outer loop
      vertex -34.405 35.4 10
      vertex -34.405 35.398767610684835 10
      vertex 34.405 35.4 10
    endloop
  endfacet
  facet normal 0 0 -1
    outer loop
      vertex -35.28545602565321 -34.86472317204377 0
      vertex 18.4225 -14.0625 0
      vertex 35.37868018124654 -34.405 0
    endloop
  endfacet
  facet normal 0 0 -1
    outer loop
      vertex -35.398767610684835 -34.405 0
      vertex 18.4125 -14.0625 0
      vertex 18.4225 -14.0625 0
    endloop
  endfacet
  facet normal 0 0 -1
    outer loop
      vertex -34.405 -35.37868018124654 0
      vertex 34.405 -35.398767610684835 0
      vertex 34.405 -35.4 0
    endloop
  endfacet
  facet normal 0 0 -1
    outer loop
      vertex -34.96806474673115 -35.22298386589365 0
      vertex 34.86472317204377 -35.28545602565321 0
      vertex 34.405 -35.398767610684835 0
    endloop
  endfacet
  facet normal 0 0 -1
    outer loop
      vertex -34.96806474673115 -35.22298386589365 0
      vertex 35.22298386589365 -34.96806474673115 0
      vertex 34.86472317204377 -35.28545602565321 0
    endloop
  endfacet
  facet normal 0 0 -1
    outer loop
      vertex -34.96806474673115 -35.22298386589365 0
      vertex 35.392708874098055 -34.52053668025532 0
      vertex 35.22298386589365 -34.96806474673115 0
    endloop
  endfacet
  facet normal 0 0 -1
    outer loop
      vertex -34.96806474673115 -35.22298386589365 0
      vertex 35.37868018124654 -34.405 0
      vertex 35.392708874098055 -34.52053668025532 0
    endloop
  endfacet
  facet normal 0 -1 0
    outer loop
      vertex -34.405 -35.4 0
      vertex 34.405 -35.4 0
      vertex 34.405 -35.4 10
    endloop
  endfacet
  facet normal 0 0 -1
    outer loop
      vertex 35.37868018124654 -34.405 0
      vertex 18.4225 -14.0625 0
      vertex 18.4225 14.072500000000002 0
    endloop
  endfacet
  facet normal 0 0 -1
    outer loop
      vertex 35.4 -34.405 0
      vertex 35.37868018124654 -34.405 0
      vertex 35.4 34.405 0
    endloop
  endfacet
  facet normal 0 0 1
    outer loop
      vertex 35.37868018124654 -34.405 10
      vertex -11.850000000000001 -14.0625 10
      vertex -18.4125 -14.0625 10
    endloop
  endfacet
  facet normal 0 0 1
    outer loop
      vertex -34.405 -35.4 10
      vertex 34.405 -35.4 10
      vertex 34.405 -35.398767610684835 10
    endloop
  endfacet
  facet normal 0 0 1
    outer loop
      vertex 34.405 -35.398767610684835 10
      vertex 34.86472317204377 -35.28545602565321 10
      vertex -18.4125 -14.0625 10
    endloop
  endfacet
  facet normal 0 0 1
    outer loop
      vertex 34.86472317204377 -35.28545602565321 10
      vertex 35.22298386589365 -34.96806474673115 10
      vertex -18.4125 -14.0625 10
    endloop
  endfacet
  facet normal 0 0 1
    outer loop
      vertex 35.22298386589365 -34.96806474673115 10
      vertex 35.392708874098055 -34.52053668025532 10
      vertex -18.4125 -14.0625 10
    endloop
  endfacet
  facet normal 0 0 1
    outer loop
      vertex 35.392708874098055 -34.52053668025532 10
      vertex 35.37868018124654 -34.405 10
      vertex -18.4125 -14.0625 10
    endloop
  endfacet
  facet normal 0 0 1
    outer loop
      vertex 35.37868018124654 -34.405 10
      vertex 18.4125 -14.0625 10
      vertex -11.850000000000001 -14.0625 10
    endloop
  endfacet
  facet normal 0 0 1
    outer loop
      vertex 35.37868018124654 -34.405 10
      vertex 18.4225 -14.0625 10
      vertex 18.4125 -14.0625 10
    endloop
  endfacet
  facet normal 1 0 0
    outer loop
      vertex 35.4 -34.405 0
      vertex 35.4 34.405 10
      vertex 35.4 -34.405 10
    endloop
  endfacet
  facet normal 0 0 1
    outer loop
      vertex 35.4 -34.405 10
      vertex 35.398767610684835 34.405 10
      vertex 35.37868018124654 -34.405 10
    endloop
  endfacet
  facet normal 0 0 1
    outer loop
      vertex 35.37868018124654 -34.405 10
      vertex 34.405 35.37868018124654 10
      vertex 18.4225 -14.0625 10
    endloop
  endfacet
  facet normal 0 0 -1
    outer loop
      vertex -18.4125 14.072500000000002 0
      vertex 35.398767610684835 34.405 0
      vertex 18.4225 14.072500000000002 0
    endloop
  endfacet
  facet normal 0 0 -1
    outer loop
      vertex -34.405 35.4 0
      vertex 34.405 35.4 0
      vertex 34.405 35.37868018124654 0
    endloop
  endfacet
  facet normal 0 0 -1
    outer loop
      vertex -35.37868018124654 34.405 0
      vertex 34.96806474673115 35.22298386589365 0
      vertex 35.28545602565321 34.86472317204377 0
    endloop
  endfacet
  facet normal 0 0 -1
    outer loop
      vertex -34.405 35.398767610684835 0
      vertex 34.405 35.37868018124654 0
      vertex 34.96806474673115 35.22298386589365 0
    endloop
  endfacet
  facet normal 0 0 -1
    outer loop
      vertex -18.4125 14.072500000000002 0
      vertex 35.28545602565321 34.86472317204377 0
      vertex 35.398767610684835 34.405 0
    endloop
  endfacet
  facet normal 0 0 -1
    outer loop
      vertex 35.37868018124654 -34.405 0
      vertex 18.4225 14.072500000000002 0
      vertex 35.398767610684835 34.405 0
    endloop
  endfacet
  facet normal 0 0 -1
    outer loop
      vertex 35.37868018124654 -34.405 0
      vertex 35.398767610684835 34.405 0
      vertex 35.4 34.405 0
    endloop
  endfacet
  facet normal 1 0 0
    outer loop
      vertex 35.4 -34.405 0
      vertex 35.4 34.405 0
      vertex 35.4 34.405 10
    endloop
  endfacet
  facet normal 0 0 -1
    outer loop
      vertex 34.405 35.37868018124654 0
      vertex 34.52053668025532 35.392708874098055 0
      vertex 34.96806474673115 35.22298386589365 0
    endloop
  endfacet
  facet normal 0 1 0
    outer loop
      vertex -34.405 35.4 10
      vertex 34.405 35.4 10
      vertex 34.405 35.4 0
    endloop
  endfacet
  facet normal 0 0 1
    outer loop
      vertex -34.405 35.398767610684835 10
      vertex 18.4225 14.072500000000002 10
      vertex 34.405 35.37868018124654 10
    endloop
  endfacet
  facet normal 0 0 1
    outer loop
      vertex -34.405 35.398767610684835 10
      vertex 34.405 35.37868018124654 10
      vertex 34.405 35.4 10
    endloop
  endfacet
  facet normal 0 0 1
    outer loop
      vertex 18.4225 -14.0625 10
      vertex 34.405 35.37868018124654 10
      vertex 18.4225 14.072500000000002 10
    endloop
  endfacet
  facet normal 0 0 1
    outer loop
      vertex 35.37868018124654 -34.405 10
      vertex 34.52053668025532 35.392708874098055 10
      vertex 34.405 35.37868018124654 10
    endloop
  endfacet
  facet normal 0 0 1
    outer loop
      vertex 35.4 -34.405 10
      vertex 35.4 34.405 10
      vertex 35.398767610684835 34.405 10
    endloop
  endfacet
  facet normal 0 0 1
    outer loop
      vertex 35.37868018124654 -34.405 10
      vertex 34.96806474673115 35.22298386589365 10
      vertex 34.52053668025532 35.392708874098055 10
    endloop
  endfacet
  facet normal 0 0 1
    outer loop
      vertex 35.37868018124654 -34.405 10
      vertex 35.398767610684835 34.405 10
      vertex 34.96806474673115 35.22298386589365 10
    endloop
  endfacet
  facet normal 0 0 1
    outer loop
      vertex 35.398767610684835 34.405 10
      vertex 35.28545602565321 34.86472317204377 10
      vertex 34.96806474673115 35.22298386589365 10
    endloop
  endfacet
  facet normal 1 0 0
    outer loop
      vertex -18.4125 14.072500000000002 0
      vertex -18.4125 14.072500000000002 10
      vertex -18.4125 14.0625 0
    endloop
  endfacet
  facet normal 1 0 0
    outer loop
      vertex -18.4125 14.072500000000002 10
      vertex -18.4125 14.0625 10
      vertex -18.4125 14.0625 0
    endloop
  endfacet
  facet normal 0 -1 0
    outer loop
      vertex -18.4125 14.072500000000002 0
      vertex 18.4225 14.072500000000002 10
      vertex -18.4125 14.072500000000002 10
    endloop
  endfacet
  facet normal 0 1 0
    outer loop
      vertex 18.4225 -14.0625 0
      vertex 18.4125 -14.0625 0
      vertex 18.4125 -14.0625 10
    endloop
  endfacet
  facet normal -1 0 0
    outer loop
      vertex 18.4225 -14.0625 0
      vertex 18.4225 -14.0625 10
      vertex 18.4225 14.072500000000002 0
    endloop
  endfacet
  facet normal 0 1 0
    outer loop
      vertex 18.4225 -14.0625 0
      vertex 18.4125 -14.0625 10
      vertex 18.4225 -14.0625 10
    endloop
  endfacet
  facet normal 0 -1 0
    outer loop
      vertex -18.4125 14.072500000000002 0
      vertex 18.4225 14.072500000000002 0
      vertex 18.4225 14.072500000000002 10
    endloop
  endfacet
  facet normal -1 0 0
    outer loop
      vertex 18.4225 -14.0625 10
      vertex 18.4225 14.072500000000002 10
      vertex 18.4225 14.072500000000002 0
    endloop
  endfacet
  facet normal 0 0 -1
    outer loop
      vertex -9.850000000000001 -7.5 0
      vertex -11.850000000000001 -14.0625 0
      vertex -11.850000000000001 9.032846715328468 0
    endloop
  endfacet
  facet normal 0 0 -1
    outer loop
      vertex -9.850000000000001 -7.5 0
      vertex 9.849999999999998 -7.5 0
      vertex -11.850000000000001 -14.0625 0
    endloop
  endfacet
  facet normal 0 0 1
    outer loop
      vertex -13.091554054054056 -8.741554054054054 10
      vertex -10.292651377429731 -7.83771500489442 10
      vertex -11.850000000000001 -7.5 10
    endloop
  endfacet
  facet normal 0 0 1
    outer loop
      vertex -13.091554054054056 -8.741554054054054 10
      vertex 11.559381739755572 -12.576383896477354 10
      vertex -10.292651377429731 -7.83771500489442 10
    endloop
  endfacet
  facet normal 0 0 1
    outer loop
      vertex -13.091554054054056 -8.741554054054054 10
      vertex -11.850000000000001 -14.0625 10
      vertex 18.4125 -14.0625 10
    endloop
  endfacet
  facet normal 0 0 1
    outer loop
      vertex -10.292651377429731 -7.83771500489442 10
      vertex 6.350000000000001 -7.5 10
      vertex -9.850000000000001 -7.5 10
    endloop
  endfacet
  facet normal 0 0 -1
    outer loop
      vertex -9.850000000000001 -7.5 0
      vertex -11.850000000000001 9.032846715328468 0
      vertex -9.850000000000001 7.5 0
    endloop
  endfacet
  facet normal 0 0 -1
    outer loop
      vertex -12.845549535603716 9.795859133126935 0
      vertex 18.4125 14.0625 0
      vertex -11.850000000000001 9.032846715328468 0
    endloop
  endfacet
  facet normal 0 0 -1
    outer loop
      vertex -11.850000000000001 9.032846715328468 0
      vertex 18.4125 14.0625 0
      vertex -9.850000000000001 7.5 0
    endloop
  endfacet
  facet normal 0 0 -1
    outer loop
      vertex -12.845549535603716 9.795859133126935 0
      vertex -11.850000000000001 14.0625 0
      vertex 18.4125 14.0625 0
    endloop
  endfacet
  facet normal 0 1 0
    outer loop
      vertex -11.850000000000001 14.0625 0
      vertex -14.810278088317496 14.0625 4.510899944102851
      vertex -11.850000000000001 14.0625 8
    endloop
  endfacet
  facet normal 0 1 0
    outer loop
      vertex -11.850000000000001 14.0625 0
      vertex -9.850000000000001 14.0625 10
      vertex 18.4125 14.0625 0
    endloop
  endfacet
  facet normal 0 1 0
    outer loop
      vertex -11.850000000000001 14.0625 0
      vertex -11.850000000000001 14.0625 8
      vertex -9.850000000000001 14.0625 10
    endloop
  endfacet
  facet normal 0 1 0
    outer loop
      vertex -14.810278088317496 14.0625 4.510899944102851
      vertex -11.850000000000001 14.0625 8.217922606924644
      vertex -11.850000000000001 14.0625 8
    endloop
  endfacet
  facet normal 0 0 1
    outer loop
      vertex -11.383333333333335 7.5 10
      vertex -9.850000000000001 13.61257395226329 10
      vertex -11.850000000000001 14.0625 10
    endloop
  endfacet
  facet normal 0 0 1
    outer loop
      vertex -11.383333333333335 7.5 10
      vertex -9.850000000000001 7.5 10
      vertex 13.162964848592175 8.435507791747831 10
    endloop
  endfacet
  facet normal 0 0 1
    outer loop
      vertex -11.383333333333335 7.5 10
      vertex 13.162964848592175 8.435507791747831 10
      vertex -9.850000000000001 13.61257395226329 10
    endloop
  endfacet
  facet normal 0 0 1
    outer loop
      vertex -9.850000000000001 13.61257395226329 10
      vertex 13.162964848592175 8.435507791747831 10
      vertex -9.850000000000001 14.0625 10
    endloop
  endfacet
  facet normal 0 0 -1
    outer loop
      vertex 9.849999999999998 -7.5 0
      vertex 11.850000000000001 -9.03284671532847 0
      vertex -11.850000000000001 -14.0625 0
    endloop
  endfacet
  facet normal 0 0 -1
    outer loop
      vertex 11.850000000000001 -9.03284671532847 0
      vertex 18.4125 -14.0625 0
      vertex -11.850000000000001 -14.0625 0
    endloop
  endfacet
  facet normal 0 0 -1
    outer loop
      vertex 9.849999999999998 -7.5 0
      vertex 11.850000000000001 2.4635036496350295 0
      vertex 11.850000000000001 -9.03284671532847 0
    endloop
  endfacet
  facet normal 1 0 0
    outer loop
      vertex 18.4125 -7.5 1.6
      vertex 18.4125 -14.0625 0
      vertex 18.4125 7.5 1.6
    endloop
  endfacet
  facet normal 1 0 0
    outer loop
      vertex 18.4125 -7.5 1.6
      vertex 18.4125 -14.0625 10
      vertex 18.4125 -14.0625 0
    endloop
  endfacet
  facet normal 0 0 1
    outer loop
      vertex -10.292651377429731 -7.83771500489442 10
      vertex 11.559381739755572 -12.576383896477354 10
      vertex 6.350000000000001 -7.5 10
    endloop
  endfacet
  facet normal 0 0 1
    outer loop
      vertex -13.091554054054056 -8.741554054054054 10
      vertex 18.4125 -14.0625 10
      vertex 11.559381739755572 -12.576383896477354 10
    endloop
  endfacet
  facet normal 0 0 1
    outer loop
      vertex 11.559381739755572 -12.576383896477354 10
      vertex 18.4125 -14.0625 10
      vertex 11.850000000000001 -7.5 10
    endloop
  endfacet
  facet normal 0 0 1
    outer loop
      vertex 11.850000000000001 -7.5 10
      vertex 18.4125 -14.0625 10
      vertex 16.88125 -7.5 10
    endloop
  endfacet
  facet normal 0 0 -1
    outer loop
      vertex -9.850000000000001 7.5 0
      vertex 18.4125 14.0625 0
      vertex 9.849999999999998 7.5 0
    endloop
  endfacet
  facet normal 0 0 -1
    outer loop
      vertex 9.849999999999998 -7.5 0
      vertex 9.849999999999998 7.5 0
      vertex 11.850000000000001 2.4635036496350295 0
    endloop
  endfacet
  facet normal 0 0 -1
    outer loop
      vertex 11.850000000000001 2.4635036496350295 0
      vertex 18.4125 14.0625 0
      vertex 18.4125 -14.0625 0
    endloop
  endfacet
  facet normal 0 0 -1
    outer loop
      vertex 11.850000000000001 2.4635036496350295 0
      vertex 9.849999999999998 7.5 0
      vertex 18.4125 14.0625 0
    endloop
  endfacet
  facet normal 1 0 0
    outer loop
      vertex 18.4125 7.5 1.6
      vertex 18.4125 -14.0625 0
      vertex 18.4125 14.0625 0
    endloop
  endfacet
  facet normal 1 0 0
    outer loop
      vertex 18.4125 7.5 1.6
      vertex 18.4125 14.0625 0
      vertex 18.4125 14.0625 10
    endloop
  endfacet
  facet normal 0 1 0
    outer loop
      vertex -9.850000000000001 14.0625 10
      vertex 18.4125 14.0625 10
      vertex 18.4125 14.0625 0
    endloop
  endfacet
  facet normal 0 0 1
    outer loop
      vertex -9.850000000000001 7.5 10
      vertex 6.350000000000001 7.5 10
      vertex 13.162964848592175 8.435507791747831 10
    endloop
  endfacet
  facet normal 0 0 1
    outer loop
      vertex -9.850000000000001 14.0625 10
      vertex 13.162964848592175 8.435507791747831 10
      vertex 18.4125 14.0625 10
    endloop
  endfacet
  facet normal 0 0 1
    outer loop
      vertex 6.350000000000001 7.5 10
      vertex 11.850000000000001 7.5 10
      vertex 13.162964848592175 8.435507791747831 10
    endloop
  endfacet
  facet normal 0 0 1
    outer loop
      vertex 13.162964848592175 8.435507791747831 10
      vertex 18.4125 7.5 10
      vertex 18.4125 14.0625 10
    endloop
  endfacet
  facet normal 1 0 0
    outer loop
      vertex 18.4125 7.5 1.6
      vertex 18.4125 14.0625 10
      vertex 18.4125 7.5 10
    endloop
  endfacet
  facet normal 0 0 1
    outer loop
      vertex -11.850000000000001 -7.5 1.6
      vertex -9.850000000000001 -7.5 1.6
      vertex -9.850000000000001 7.5 1.6
    endloop
  endfacet
  facet normal 0 1 0
    outer loop
      vertex -11.850000000000001 -7.5 1.6
      vertex -11.850000000000001 -7.5 8
      vertex -9.850000000000001 -7.5 1.6
    endloop
  endfacet
  facet normal 0 1 0
    outer loop
      vertex -9.850000000000001 -7.5 1.6
      vertex -9.850000000000001 -7.5 10
      vertex 9.849999999999998 -7.5 1.6
    endloop
  endfacet
  facet normal 0 1 0
    outer loop
      vertex -9.850000000000001 -7.5 1.6
      vertex -11.850000000000001 -7.5 8
      vertex -9.850000000000001 -7.5 10
    endloop
  endfacet
  facet normal 0 0 1
    outer loop
      vertex -11.850000000000001 -7.5 1.6
      vertex -9.850000000000001 7.5 1.6
      vertex -11.850000000000001 7.5 1.6
    endloop
  endfacet
  facet normal 0 -1 0
    outer loop
      vertex -11.850000000000001 7.5 1.6
      vertex -9.850000000000001 7.5 1.6
      vertex 6.350000000000001 7.5 10
    endloop
  endfacet
  facet normal 0 -1 0
    outer loop
      vertex -11.850000000000001 7.5 1.6
      vertex 6.350000000000001 7.5 10
      vertex -11.850000000000001 7.5 8
    endloop
  endfacet
  facet normal 0 -1 0
    outer loop
      vertex -11.850000000000001 7.5 8
      vertex 6.350000000000001 7.5 10
      vertex -9.850000000000001 7.5 10
    endloop
  endfacet
  facet normal 0 0 1
    outer loop
      vertex 9.849999999999998 -7.5 1.6
      vertex 11.850000000000001 -7.5 1.6
      vertex 11.850000000000001 7.5 1.6
    endloop
  endfacet
  facet normal 0 1 0
    outer loop
      vertex -9.850000000000001 -7.5 10
      vertex 11.850000000000001 -7.5 1.6
      vertex 9.849999999999998 -7.5 1.6
    endloop
  endfacet
  facet normal 0 1 0
    outer loop
      vertex -9.850000000000001 -7.5 10
      vertex 8.350000000000001 -7.5 8
      vertex 11.850000000000001 -7.5 1.6
    endloop
  endfacet
  facet normal 0 1 0
    outer loop
      vertex 11.850000000000001 -7.5 1.6
      vertex 8.350000000000001 -7.5 8
      vertex 11.850000000000001 -7.5 8
    endloop
  endfacet
  facet normal 0 1 0
    outer loop
      vertex -9.850000000000001 -7.5 10
      vertex 6.350000000000001 -7.5 10
      vertex 8.350000000000001 -7.5 8
    endloop
  endfacet
  facet normal 0 0 1
    outer loop
      vertex 9.849999999999998 -7.5 1.6
      vertex 11.850000000000001 7.5 1.6
      vertex 9.849999999999998 7.5 1.6
    endloop
  endfacet
  facet normal 0 -1 0
    outer loop
      vertex -9.850000000000001 7.5 1.6
      vertex 9.849999999999998 7.5 1.6
      vertex 8.350000000000001 7.5 8
    endloop
  endfacet
  facet normal 0 -1 0
    outer loop
      vertex 9.849999999999998 7.5 1.6
      vertex 11.850000000000001 7.5 1.6
      vertex 8.350000000000001 7.5 8
    endloop
  endfacet
  facet normal 0 -1 0
    outer loop
      vertex -9.850000000000001 7.5 1.6
      vertex 8.350000000000001 7.5 8
      vertex 6.350000000000001 7.5 10
    endloop
  endfacet
  facet normal 0 -1 0
    outer loop
      vertex 11.850000000000001 7.5 1.6
      vertex 11.850000000000001 7.5 8
      vertex 8.350000000000001 7.5 8
    endloop
  endfacet
  facet normal 1 0 0
    outer loop
      vertex -9.850000000000001 -7.5 0
      vertex -9.850000000000001 7.5 1.6
      vertex -9.850000000000001 -7.5 1.6
    endloop
  endfacet
  facet normal 0 1 0
    outer loop
      vertex -9.850000000000001 -7.5 0
      vertex -9.850000000000001 -7.5 1.6
      vertex 9.849999999999998 -7.5 0
    endloop
  endfacet
  facet normal 1 0 0
    outer loop
      vertex -9.850000000000001 -7.5 0
      vertex -9.850000000000001 7.5 0
      vertex -9.850000000000001 7.5 1.6
    endloop
  endfacet
  facet normal 0 -1 0
    outer loop
      vertex -9.850000000000001 7.5 0
      vertex 9.849999999999998 7.5 1.6
      vertex -9.850000000000001 7.5 1.6
    endloop
  endfacet
  facet normal 0 1 0
    outer loop
      vertex -9.850000000000001 -7.5 1.6
      vertex 9.849999999999998 -7.5 1.6
      vertex 9.849999999999998 -7.5 0
    endloop
  endfacet
  facet normal -1 0 0
    outer loop
      vertex 9.849999999999998 -7.5 0
      vertex 9.849999999999998 -7.5 1.6
      vertex 9.849999999999998 7.5 0
    endloop
  endfacet
  facet normal 0 -1 0
    outer loop
      vertex -9.850000000000001 7.5 0
      vertex 9.849999999999998 7.5 0
      vertex 9.849999999999998 7.5 1.6
    endloop
  endfacet
  facet normal -1 0 0
    outer loop
      vertex 9.849999999999998 -7.5 1.6
      vertex 9.849999999999998 7.5 1.6
      vertex 9.849999999999998 7.5 0
    endloop
  endfacet
  facet normal 0 0 -1
    outer loop
      vertex -11.850000000000001 9.032846715328468 0
      vertex -11.850000000000001 -14.0625 0
      vertex -18.4125 -14.0625 0
    endloop
  endfacet
  facet normal 1 0 0
    outer loop
      vertex -11.850000000000001 -7.5 1.6
      vertex -11.850000000000001 7.5 1.6
      vertex -11.850000000000001 -7.5 8
    endloop
  endfacet
  facet normal 0 0 1
    outer loop
      vertex -13.091554054054056 -8.741554054054054 10
      vertex -18.4125 -14.0625 10
      vertex -11.850000000000001 -14.0625 10
    endloop
  endfacet
  facet normal 0 0 1
    outer loop
      vertex -13.091554054054056 -8.741554054054054 10
      vertex -11.850000000000001 14.0625 10
      vertex -18.4125 -14.0625 10
    endloop
  endfacet
  facet normal 0 0 1
    outer loop
      vertex -13.091554054054056 -8.741554054054054 10
      vertex -11.850000000000001 -7.5 10
      vertex -11.850000000000001 14.0625 10
    endloop
  endfacet
  facet normal 0 0 -1
    outer loop
      vertex -12.845549535603716 9.795859133126935 0
      vertex -18.4125 -14.0625 0
      vertex -18.4125 14.0625 0
    endloop
  endfacet
  facet normal 0 0 -1
    outer loop
      vertex -12.845549535603716 9.795859133126935 0
      vertex -11.850000000000001 9.032846715328468 0
      vertex -18.4125 -14.0625 0
    endloop
  endfacet
  facet normal 0 0 -1
    outer loop
      vertex -12.845549535603716 9.795859133126935 0
      vertex -18.4125 14.0625 0
      vertex -11.850000000000001 14.0625 0
    endloop
  endfacet
  facet normal 0 1 0
    outer loop
      vertex -11.850000000000001 14.0625 0
      vertex -18.4125 14.0625 0
      vertex -14.810278088317496 14.0625 4.510899944102851
    endloop
  endfacet
  facet normal 0 1 0
    outer loop
      vertex -14.810278088317496 14.0625 4.510899944102851
      vertex -18.4125 14.0625 0
      vertex -18.4125 14.0625 10
    endloop
  endfacet
  facet normal 1 0 0
    outer loop
      vertex -11.850000000000001 -7.5 8
      vertex -11.850000000000001 7.5 1.6
      vertex -11.850000000000001 7.5 8
    endloop
  endfacet
  facet normal 0 0 1
    outer loop
      vertex -11.850000000000001 14.0625 10
      vertex -18.4125 14.0625 10
      vertex -18.4125 -14.0625 10
    endloop
  endfacet
  facet normal 0 1 0
    outer loop
      vertex -14.810278088317496 14.0625 4.510899944102851
      vertex -18.4125 14.0625 10
      vertex -11.850000000000001 14.0625 10
    endloop
  endfacet
  facet normal 0 1 0
    outer loop
      vertex -14.810278088317496 14.0625 4.510899944102851
      vertex -11.850000000000001 14.0625 10
      vertex -11.850000000000001 14.0625 8.217922606924644
    endloop
  endfacet
  facet normal 0 0 -1
    outer loop
      vertex 11.850000000000001 -9.03284671532847 0
      vertex 11.850000000000001 2.4635036496350295 0
      vertex 18.4125 -14.0625 0
    endloop
  endfacet
  facet normal 1 0 0
    outer loop
      vertex 18.4125 -7.5 1.6
      vertex 18.4125 7.5 1.6
      vertex 18.4125 -14.0625 10
    endloop
  endfacet
  facet normal -1 0 0
    outer loop
      vertex 11.850000000000001 -7.5 1.6
      vertex 11.850000000000001 -7.5 8
      vertex 11.850000000000001 7.5 8
    endloop
  endfacet
  facet normal 0 0 1
    outer loop
      vertex 11.850000000000001 -7.5 10
      vertex 16.88125 -7.5 10
      vertex 11.850000000000001 7.5 10
    endloop
  endfacet
  facet normal 0 0 1
    outer loop
      vertex 16.88125 -7.5 10
      vertex 18.4125 -14.0625 10
      vertex 18.4125 7.5 10
    endloop
  endfacet
  facet normal -1 0 0
    outer loop
      vertex 11.850000000000001 -7.5 1.6
      vertex 11.850000000000001 7.5 8
      vertex 11.850000000000001 7.5 1.6
    endloop
  endfacet
  facet normal 0 0 1
    outer loop
      vertex 16.88125 -7.5 10
      vertex 13.162964848592175 8.435507791747831 10
      vertex 11.850000000000001 7.5 10
    endloop
  endfacet
  facet normal 0 0 1
    outer loop
      vertex 16.88125 -7.5 10
      vertex 18.4125 7.5 10
      vertex 13.162964848592175 8.435507791747831 10
    endloop
  endfacet
  facet normal 1 0 0
    outer loop
      vertex 18.4125 7.5 1.6
      vertex 18.4125 7.5 10
      vertex 18.4125 -14.0625 10
    endloop
  endfacet
  facet normal 0.7071067811865475 0 -0.7071067811865475
    outer loop
      vertex -11.850000000000001 -7.5 8
      vertex -11.850000000000001 7.5 8
      vertex -9.850000000000001 -7.5 10
    endloop
  endfacet
  facet normal 0 0 1
    outer loop
      vertex -11.850000000000001 -7.5 10
      vertex -10.292651377429731 -7.83771500489442 10
      vertex -11.383333333333335 7.5 10
    endloop
  endfacet
  facet normal 0 0 1
    outer loop
      vertex -10.292651377429731 -7.83771500489442 10
      vertex -9.850000000000001 -7.5 10
      vertex -11.383333333333335 7.5 10
    endloop
  endfacet
  facet normal 0.7071067811865475 0 -0.7071067811865475
    outer loop
      vertex -9.850000000000001 -7.5 10
      vertex -11.850000000000001 7.5 8
      vertex -9.850000000000001 7.5 10
    endloop
  endfacet
  facet normal 0 0 1
    outer loop
      vertex -9.850000000000001 -7.5 10
      vertex -9.850000000000001 7.5 10
      vertex -11.383333333333335 7.5 10
    endloop
  endfacet
  facet normal 0 0 1
    outer loop
      vertex -11.850000000000001 -7.5 10
      vertex -11.383333333333335 7.5 10
      vertex -11.850000000000001 14.0625 10
    endloop
  endfacet
  facet normal 0 1 0
    outer loop
      vertex -11.850000000000001 14.0625 8
      vertex -11.850000000000001 14.0625 8.217922606924644
      vertex -9.850000000000001 14.0625 10
    endloop
  endfacet
  facet normal 0 1 0
    outer loop
      vertex -11.850000000000001 14.0625 8.217922606924644
      vertex -11.850000000000001 14.0625 10
      vertex -9.850000000000001 14.0625 10
    endloop
  endfacet
  facet normal 0 0 1
    outer loop
      vertex -11.850000000000001 14.0625 10
      vertex -9.850000000000001 13.61257395226329 10
      vertex -9.850000000000001 14.0625 10
    endloop
  endfacet
  facet normal -0.7071067811865475 0 -0.7071067811865475
    outer loop
      vertex 8.350000000000001 -7.5 8
      vertex 6.350000000000001 -7.5 10
      vertex 6.350000000000001 7.5 10
    endloop
  endfacet
  facet normal 0 0 -1
    outer loop
      vertex 8.350000000000001 -7.5 8
      vertex 8.350000000000001 7.5 8
      vertex 11.850000000000001 -7.5 8
    endloop
  endfacet
  facet normal 0 0 1
    outer loop
      vertex 6.350000000000001 -7.5 10
      vertex 11.559381739755572 -12.576383896477354 10
      vertex 11.850000000000001 7.5 10
    endloop
  endfacet
  facet normal 0 0 1
    outer loop
      vertex 11.559381739755572 -12.576383896477354 10
      vertex 11.850000000000001 -7.5 10
      vertex 11.850000000000001 7.5 10
    endloop
  endfacet
  facet normal -0.7071067811865475 0 -0.7071067811865475
    outer loop
      vertex 8.350000000000001 -7.5 8
      vertex 6.350000000000001 7.5 10
      vertex 8.350000000000001 7.5 8
    endloop
  endfacet
  facet normal 0 0 1
    outer loop
      vertex 6.350000000000001 -7.5 10
      vertex 11.850000000000001 7.5 10
      vertex 6.350000000000001 7.5 10
    endloop
  endfacet
  facet normal 0 0 -1
    outer loop
      vertex 11.850000000000001 -7.5 8
      vertex 8.350000000000001 7.5 8
      vertex 11.850000000000001 7.5 8
    endloop
  endfacet
endsolid OpenSCAD_Model
