solid OpenSCAD_Model
  facet normal 0 0 1
    outer loop
      vertex 18.4125 -14.0625 10
      vertex 11.85 -7.5 10
      vertex 6.35 -7.5 10
    endloop
  endfacet
  facet normal 0 0 -1
    outer loop
      vertex -9.85 7.5 0
      vertex -18.4125 14.0625 0
      vertex 18.4125 14.0625 0
    endloop
  endfacet
  facet normal 0 1 0
    outer loop
      vertex 18.4125 14.0625 0
      vertex -18.4125 14.0625 0
      vertex -18.4125 14.0625 10
    endloop
  endfacet
  facet normal 0 0 1
    outer loop
      vertex -18.4125 14.0625 10
      vertex -18.4125 -14.0625 10
      vertex -11.85 7.5 10
    endloop
  endfacet
  facet normal 0 0 1
    outer loop
      vertex -18.4125 14.0625 10
      vertex -11.85 7.5 10
      vertex -9.85 7.5 10
    endloop
  endfacet
  facet normal 0 0 1
    outer loop
      vertex 6.35 7.5 10
      vertex -18.4125 14.0625 10
      vertex -9.85 7.5 10
    endloop
  endfacet
  facet normal 0 0 1
    outer loop
      vertex -18.4125 14.0625 10
      vertex 6.35 7.5 10
      vertex 11.85 7.5 10
    endloop
  endfacet
  facet normal 0 0 -1
    outer loop
      vertex -18.4125 -14.0625 0
      vertex 9.85 -7.5 0
      vertex 18.4125 -14.0625 0
    endloop
  endfacet
  facet normal 0 0 -1
    outer loop
      vertex 18.4125 -14.0625 0
      vertex 9.85 -7.5 0
      vertex 9.85 7.5 0
    endloop
  endfacet
  facet normal 0 0 1
    outer loop
      vertex -9.85 -7.5 10
      vertex 18.4125 -14.0625 10
      vertex 6.35 -7.5 10
    endloop
  endfacet
  facet normal 1 0 0
    outer loop
      vertex 18.4125 -14.0625 10
      vertex 18.4125 -14.0625 0
      vertex 18.4125 -7.5 10
    endloop
  endfacet
  facet normal 0 -1 0
    outer loop
      vertex 18.4125 -14.0625 10
      vertex -18.4125 -14.0625 0
      vertex 18.4125 -14.0625 0
    endloop
  endfacet
  facet normal 0 0 1
    outer loop
      vertex 18.4125 -14.0625 10
      vertex 18.4125 -7.5 10
      vertex 11.85 -7.5 10
    endloop
  endfacet
  facet normal 1 0 0
    outer loop
      vertex 18.4125 -14.0625 0
      vertex 18.4125 7.5 10
      vertex 18.4125 -7.5 10
    endloop
  endfacet
  facet normal 0 0 -1
    outer loop
      vertex 9.85 7.5 0
      vertex -9.85 7.5 0
      vertex 18.4125 14.0625 0
    endloop
  endfacet
  facet normal 0 0 -1
    outer loop
      vertex 9.85 7.5 0
      vertex 18.4125 14.0625 0
      vertex 18.4125 -14.0625 0
    endloop
  endfacet
  facet normal 1 0 0
    outer loop
      vertex 18.4125 7.5 10
      vertex 18.4125 -14.0625 0
      vertex 18.4125 14.0625 0
    endloop
  endfacet
  facet normal 0 1 0
    outer loop
      vertex 18.4125 14.0625 0
      vertex -18.4125 14.0625 10
      vertex 18.4125 14.0625 10
    endloop
  endfacet
  facet normal 0 0 1
    outer loop
      vertex 11.85 7.5 10
      vertex 18.4125 7.5 10
      vertex -18.4125 14.0625 10
    endloop
  endfacet
  facet normal 0 0 1
    outer loop
      vertex 18.4125 14.0625 10
      vertex -18.4125 14.0625 10
      vertex 18.4125 7.5 10
    endloop
  endfacet
  facet normal 1 0 0
    outer loop
      vertex 18.4125 14.0625 0
      vertex 18.4125 14.0625 10
      vertex 18.4125 7.5 10
    endloop
  endfacet
  facet normal 0 0 1
    outer loop
      vertex -18.4125 -14.0625 10
      vertex -11.85 -7.5 10
      vertex -11.85 7.5 10
    endloop
  endfacet
  facet normal 0 0 -1
    outer loop
      vertex -18.4125 -14.0625 0
      vertex -18.4125 14.0625 0
      vertex -9.85 -7.5 0
    endloop
  endfacet
  facet normal 0 0 -1
    outer loop
      vertex -9.85 -7.5 0
      vertex 9.85 -7.5 0
      vertex -18.4125 -14.0625 0
    endloop
  endfacet
  facet normal -1 0 0
    outer loop
      vertex -18.4125 -14.0625 0
      vertex -18.4125 -14.0625 10
      vertex -18.4125 14.0625 10
    endloop
  endfacet
  facet normal 0 -1 0
    outer loop
      vertex -18.4125 -14.0625 10
      vertex -18.4125 -14.0625 0
      vertex 18.4125 -14.0625 10
    endloop
  endfacet
  facet normal 0 0 1
    outer loop
      vertex -11.85 -7.5 10
      vertex -18.4125 -14.0625 10
      vertex 18.4125 -14.0625 10
    endloop
  endfacet
  facet normal 0 0 1
    outer loop
      vertex -9.85 -7.5 10
      vertex -11.85 -7.5 10
      vertex 18.4125 -14.0625 10
    endloop
  endfacet
  facet normal -1 0 0
    outer loop
      vertex -18.4125 14.0625 0
      vertex -18.4125 -14.0625 0
      vertex -18.4125 14.0625 10
    endloop
  endfacet
  facet normal 0 0 -1
    outer loop
      vertex -9.85 7.5 0
      vertex -9.85 -7.5 0
      vertex -18.4125 14.0625 0
    endloop
  endfacet
  facet normal 0 -1 0
    outer loop
      vertex -11.85 7.5 8
      vertex -11.85 7.5 1.6
      vertex 6.35 7.5 10
    endloop
  endfacet
  facet normal 0 -1 0
    outer loop
      vertex 6.35 7.5 10
      vertex -11.85 7.5 1.6
      vertex -9.85 7.5 1.6
    endloop
  endfacet
  facet normal 0 -1 0
    outer loop
      vertex 11.85 7.5 1.6
      vertex 11.85 7.5 8
      vertex 8.35 7.5 8
    endloop
  endfacet
  facet normal 0 0 1
    outer loop
      vertex -11.85 -7.5 1.6
      vertex -9.85 -7.5 1.6
      vertex -9.85 7.5 1.6
    endloop
  endfacet
  facet normal 1 0 0
    outer loop
      vertex -11.85 -7.5 1.6
      vertex -11.85 7.5 1.6
      vertex -11.85 -7.5 8
    endloop
  endfacet
  facet normal 0 -1 0
    outer loop
      vertex 6.35 7.5 10
      vertex -9.85 7.5 1.6
      vertex 8.35 7.5 8
    endloop
  endfacet
  facet normal 0 -1 0
    outer loop
      vertex 9.85 7.5 1.6
      vertex 11.85 7.5 1.6
      vertex 8.35 7.5 8
    endloop
  endfacet
  facet normal 0 0 1
    outer loop
      vertex 9.85 7.5 1.6
      vertex 9.85 -7.5 1.6
      vertex 11.85 7.5 1.6
    endloop
  endfacet
  facet normal 0 -1 0
    outer loop
      vertex -9.85 7.5 1.6
      vertex 9.85 7.5 1.6
      vertex 8.35 7.5 8
    endloop
  endfacet
  facet normal 0 1 0
    outer loop
      vertex 9.85 -7.5 1.6
      vertex -9.85 -7.5 1.6
      vertex -9.85 -7.5 10
    endloop
  endfacet
  facet normal 0 1 0
    outer loop
      vertex -11.85 -7.5 8
      vertex -9.85 -7.5 10
      vertex -9.85 -7.5 1.6
    endloop
  endfacet
  facet normal 1 0 0
    outer loop
      vertex -11.85 7.5 1.6
      vertex -11.85 7.5 8
      vertex -11.85 -7.5 8
    endloop
  endfacet
  facet normal 0 1 0
    outer loop
      vertex 8.35 -7.5 8
      vertex 11.85 -7.5 8
      vertex 11.85 -7.5 1.6
    endloop
  endfacet
  facet normal 0 1 0
    outer loop
      vertex -11.85 -7.5 1.6
      vertex -11.85 -7.5 8
      vertex -9.85 -7.5 1.6
    endloop
  endfacet
  facet normal 0 0 1
    outer loop
      vertex -11.85 -7.5 1.6
      vertex -9.85 7.5 1.6
      vertex -11.85 7.5 1.6
    endloop
  endfacet
  facet normal 0 -1 0
    outer loop
      vertex -11.85 7.5 8
      vertex 6.35 7.5 10
      vertex -9.85 7.5 10
    endloop
  endfacet
  facet normal 0 1 0
    outer loop
      vertex 9.85 -7.5 1.6
      vertex -9.85 -7.5 10
      vertex 11.85 -7.5 1.6
    endloop
  endfacet
  facet normal 0 0 1
    outer loop
      vertex 11.85 -7.5 1.6
      vertex 11.85 7.5 1.6
      vertex 9.85 -7.5 1.6
    endloop
  endfacet
  facet normal 0 1 0
    outer loop
      vertex 8.35 -7.5 8
      vertex 11.85 -7.5 1.6
      vertex -9.85 -7.5 10
    endloop
  endfacet
  facet normal 0 1 0
    outer loop
      vertex 8.35 -7.5 8
      vertex -9.85 -7.5 10
      vertex 6.35 -7.5 10
    endloop
  endfacet
  facet normal 1 0 0
    outer loop
      vertex -9.85 7.5 1.6
      vertex -9.85 -7.5 0
      vertex -9.85 7.5 0
    endloop
  endfacet
  facet normal 0 -1 0
    outer loop
      vertex 9.85 7.5 1.6
      vertex -9.85 7.5 0
      vertex 9.85 7.5 0
    endloop
  endfacet
  facet normal -1 0 0
    outer loop
      vertex 9.85 7.5 0
      vertex 9.85 -7.5 0
      vertex 9.85 -7.5 1.6
    endloop
  endfacet
  facet normal -1 0 0
    outer loop
      vertex 9.85 7.5 0
      vertex 9.85 -7.5 1.6
      vertex 9.85 7.5 1.6
    endloop
  endfacet
  facet normal 0 1 0
    outer loop
      vertex 9.85 -7.5 0
      vertex -9.85 -7.5 0
      vertex -9.85 -7.5 1.6
    endloop
  endfacet
  facet normal 0 -1 0
    outer loop
      vertex -9.85 7.5 1.6
      vertex -9.85 7.5 0
      vertex 9.85 7.5 1.6
    endloop
  endfacet
  facet normal 0 1 0
    outer loop
      vertex 9.85 -7.5 0
      vertex -9.85 -7.5 1.6
      vertex 9.85 -7.5 1.6
    endloop
  endfacet
  facet normal 1 0 0
    outer loop
      vertex -9.85 -7.5 0
      vertex -9.85 7.5 1.6
      vertex -9.85 -7.5 1.6
    endloop
  endfacet
  facet normal -1 0 0
    outer loop
      vertex 11.85 -7.5 8
      vertex 11.85 7.5 8
      vertex 11.85 -7.5 1.6
    endloop
  endfacet
  facet normal 0 0 1
    outer loop
      vertex 11.85 -7.5 10
      vertex 18.4125 -7.5 10
      vertex 18.4125 7.5 10
    endloop
  endfacet
  facet normal 0 0 1
    outer loop
      vertex 11.85 7.5 10
      vertex 11.85 -7.5 10
      vertex 18.4125 7.5 10
    endloop
  endfacet
  facet normal -1 0 0
    outer loop
      vertex 11.85 -7.5 1.6
      vertex 11.85 7.5 8
      vertex 11.85 7.5 1.6
    endloop
  endfacet
  facet normal 0 0 1
    outer loop
      vertex -9.85 -7.5 10
      vertex -9.85 7.5 10
      vertex -11.85 -7.5 10
    endloop
  endfacet
  facet normal 0.70710677 0 -0.70710677
    outer loop
      vertex -11.85 -7.5 8
      vertex -11.85 7.5 8
      vertex -9.85 -7.5 10
    endloop
  endfacet
  facet normal 0 0 1
    outer loop
      vertex -9.85 7.5 10
      vertex -11.85 7.5 10
      vertex -11.85 -7.5 10
    endloop
  endfacet
  facet normal 0.70710677 0 -0.70710677
    outer loop
      vertex -11.85 7.5 8
      vertex -9.85 7.5 10
      vertex -9.85 -7.5 10
    endloop
  endfacet
  facet normal 0 0 1
    outer loop
      vertex 6.35 7.5 10
      vertex 6.35 -7.5 10
      vertex 11.85 7.5 10
    endloop
  endfacet
  facet normal -0.70710677 0 -0.70710677
    outer loop
      vertex 6.35 7.5 10
      vertex 8.35 7.5 8
      vertex 8.35 -7.5 8
    endloop
  endfacet
  facet normal 0 0 -1
    outer loop
      vertex 11.85 7.5 8
      vertex 11.85 -7.5 8
      vertex 8.35 7.5 8
    endloop
  endfacet
  facet normal -0.70710677 0 -0.70710677
    outer loop
      vertex 8.35 -7.5 8
      vertex 6.35 -7.5 10
      vertex 6.35 7.5 10
    endloop
  endfacet
  facet normal 0 0 1
    outer loop
      vertex 6.35 -7.5 10
      vertex 11.85 -7.5 10
      vertex 11.85 7.5 10
    endloop
  endfacet
  facet normal 0 0 -1
    outer loop
      vertex 8.35 -7.5 8
      vertex 8.35 7.5 8
      vertex 11.85 -7.5 8
    endloop
  endfacet
endsolid OpenSCAD_Model
